<svg width="70" height="70" viewBox="0 0 70 70" fill="none" xmlns="http://www.w3.org/2000/svg">
<g filter="url(#filter0_dd_1_6)">
<rect x="5" y="1" width="60" height="60" rx="8" fill="url(#paint0_linear_1_6)"/>
</g>
<path d="M48.725 19.8467L23.1725 19.8438C22.6854 19.8438 22.2903 19.4526 22.2903 18.9695C22.2903 18.4871 22.6851 18.096 23.1725 18.096L45.3902 18.0926C45.9734 18.0926 46.4463 17.6243 46.4463 17.0463C46.4463 16.4685 45.9736 16 45.3902 16H22.4641C21.1057 16 20 17.0954 20 18.4411V40.4553C20 41.1521 20.5702 41.7178 21.2744 41.7178H23.9828C25.6344 44.2891 28.5344 46 31.8317 46C35.1292 46 38.0292 44.2894 39.6805 41.7181H48.7256C49.4296 41.7181 50 41.1525 50 40.4556L49.9998 21.1092C49.9998 20.4116 49.4296 19.8465 48.7254 19.8465L48.725 19.8467ZM31.831 44.256C27.6744 44.256 24.2927 40.9063 24.2927 36.7886C24.2927 36.4787 24.3124 36.1661 24.3509 35.8596C24.817 32.1319 28.0329 29.3207 31.8314 29.3207C32.8043 29.3207 33.7504 29.5015 34.6437 29.8571C37.5144 31.0009 39.3696 33.7218 39.3696 36.7883C39.3693 40.9055 35.9876 44.256 31.831 44.256ZM48.0499 28.3771H41.1471C39.8422 28.3771 38.7844 27.3294 38.7844 26.0367C38.7844 24.7435 39.8422 23.6955 41.1471 23.6955H48.0499V28.3771ZM40.3676 26.0367C40.3676 26.5906 40.8206 27.0399 41.3802 27.0399C41.9398 27.0399 42.3929 26.5904 42.3929 26.0367C42.3929 25.4823 41.9398 25.0335 41.3802 25.0335C40.8206 25.0335 40.3676 25.4823 40.3676 26.0367Z" fill="white"/>
<defs>
<filter id="filter0_dd_1_6" x="0" y="0" width="70" height="70" filterUnits="userSpaceOnUse" color-interpolation-filters="sRGB">
<feFlood flood-opacity="0" result="BackgroundImageFix"/>
<feColorMatrix in="SourceAlpha" type="matrix" values="0 0 0 0 0 0 0 0 0 0 0 0 0 0 0 0 0 0 127 0" result="hardAlpha"/>
<feMorphology radius="1" operator="erode" in="SourceAlpha" result="effect1_dropShadow_1_6"/>
<feOffset dy="2"/>
<feGaussianBlur stdDeviation="2"/>
<feColorMatrix type="matrix" values="0 0 0 0 0 0 0 0 0 0 0 0 0 0 0 0 0 0 0.07 0"/>
<feBlend mode="normal" in2="BackgroundImageFix" result="effect1_dropShadow_1_6"/>
<feColorMatrix in="SourceAlpha" type="matrix" values="0 0 0 0 0 0 0 0 0 0 0 0 0 0 0 0 0 0 127 0" result="hardAlpha"/>
<feMorphology radius="1" operator="erode" in="SourceAlpha" result="effect2_dropShadow_1_6"/>
<feOffset dy="4"/>
<feGaussianBlur stdDeviation="3"/>
<feColorMatrix type="matrix" values="0 0 0 0 0 0 0 0 0 0 0 0 0 0 0 0 0 0 0.12 0"/>
<feBlend mode="normal" in2="effect1_dropShadow_1_6" result="effect2_dropShadow_1_6"/>
<feBlend mode="normal" in="SourceGraphic" in2="effect2_dropShadow_1_6" result="shape"/>
</filter>
<linearGradient id="paint0_linear_1_6" x1="5" y1="1" x2="65" y2="61" gradientUnits="userSpaceOnUse">
<stop stop-color="#A76FFF"/>
<stop offset="1" stop-color="#7445F8"/>
</linearGradient>
</defs>
</svg>
